<?xml version="1.0" encoding="utf-8"?>
<!-- Generator: Adobe Illustrator 24.2.3, SVG Export Plug-In . SVG Version: 6.00 Build 0)  -->
<svg version="1.1" id="Camada_1" xmlns="http://www.w3.org/2000/svg" xmlns:xlink="http://www.w3.org/1999/xlink" x="0px" y="0px"
	 viewBox="0 0 909.8 730.1" style="enable-background:new 0 0 909.8 730.1;" xml:space="preserve">
<style type="text/css">
	.st0{fill:#CCCCCC;}
	.st1{fill:#2F2E41;}
	.st2{fill:#F2F2F2;}
	.st3{fill:#FFFFFF;}
	.st4{fill:#3F3D56;}
	.st5{fill:#3AA40C;}
	.st6{fill:#A0616A;}
</style>
<path class="st0" d="M526.3,730.1h-381c-0.6,0-1-0.4-1-1s0.4-1,1-1h381c0.6,0,1,0.4,1,1S526.9,730.1,526.3,730.1z"/>
<path class="st1" d="M389,713l25.1,0h0c8.8,0,16,7.2,16,16v0.5l-41.1,0L389,713z"/>
<path class="st1" d="M300.8,703.6l24.4,6l0,0c8.6,2.1,13.8,10.8,11.7,19.4l-0.1,0.5l-39.9-9.9L300.8,703.6z"/>
<g>
	<path class="st2" d="M441.3,190.8C441.2,85.9,356.1,0.9,251.3,1C146.4,1.1,61.4,86.1,61.5,191c0,25.6,5.2,51,15.3,74.6
		c-0.2-0.2-0.4-0.4-0.6-0.6c8.4,19.7,20.1,37.7,34.6,53.5c0,0,0.1,0.1,0.1,0.1c1.2,1.3,2.3,2.5,3.5,3.8
		c35,36.6,83.3,57.5,133.9,58.3L242,729.1h19.8l-4-230l28.7-15.1l-4.4-8.3l-24.5,12.9l-1.9-108C358.9,378.2,441.3,293.9,441.3,190.8
		z"/>
	<path class="st3" d="M513,474h302.5c16.9,0,30.6-13.7,30.6-30.6V320.5c0-16.9-13.7-30.6-30.6-30.6H513c-16.9,0-30.6,13.7-30.6,30.6
		v122.9C482.4,460.3,496.1,474,513,474z"/>
	<path class="st4" d="M817,476.2H511.5c-17.2,0-31.2-14-31.2-31.2V319c0-17.2,14-31.2,31.2-31.2H817c17.2,0,31.2,14,31.2,31.2v126
		C848.3,462.2,834.3,476.2,817,476.2z M513.6,474h301.3c17.2,0,31.2-14,31.2-31.2V321.1c0-17.2-14-31.2-31.2-31.2H513.6
		c-17.2,0-31.2,14-31.2,31.2v121.7C482.4,460,496.4,474,513.6,474z"/>
	<rect x="547.7" y="351.9" class="st5" width="37" height="3.1"/>
	<rect x="597.1" y="351.9" class="st5" width="37" height="3.1"/>
	<rect x="668.9" y="380.4" class="st5" width="37" height="3.1"/>
	<rect x="719.1" y="380.4" class="st5" width="37" height="3.1"/>
	<rect x="647.3" y="351.9" class="st5" width="108.8" height="3.1"/>
	<rect x="547.7" y="380.4" class="st5" width="108.8" height="3.1"/>
	<rect x="547.7" y="409" class="st5" width="108.8" height="3.1"/>
	<rect x="680.5" y="409" class="st5" width="75.6" height="3.1"/>
	<polygon class="st5" points="537.3,364.9 524.3,351.9 537.3,338.8 539.9,341.4 529.5,351.9 539.9,362.3 	"/>
	<polygon class="st5" points="791.2,425.1 788.6,422.5 799,412.1 788.6,401.6 791.2,399 804.3,412.1 	"/>
	<rect x="762.1" y="409.8" transform="matrix(0.29 -0.957 0.957 0.29 156.5343 1034.3641)" class="st5" width="26.6" height="3.7"/>
	<polygon class="st6" points="383.7,718.2 396.5,718.2 402.5,669 383.7,669 	"/>
	<polygon class="st6" points="294.5,709.5 306.9,712.5 324.6,666.3 306.3,661.8 	"/>
	<path class="st1" d="M341.6,509.7l-11.2,63.8c0,0-4.3,7.8-2.6,11.2s2.6,3.4,0,5.2s-6,0-5.2,4.3c0.5,2.6,0.8,5.1,0.9,7.8l-24.1,82.7
		c0,0-15.5,6.9-4.3,11.2s22.4,7.8,25,3.4s0-9.5,0-9.5l39.6-94.8c0,0,6-8.6,6-13.8s19.8-42.2,19.8-42.2s0.9,37.1,1.7,39.6
		s-1.7,7.8-1.7,11.2s-1.7,3.4,0,5.2s1.7,21.5,1.7,21.5s-10.3,76.7-4.3,77.6s23.3-0.9,23.3-4.3c0.2-1.8-0.9-3.6-2.6-4.3l11.2-65.5
		c0,0-0.9-4.3,0.9-7.8s1.7-3.4,1.7-5.2s-0.9-2.6,0-3.4c0.6-0.7,0.9-1.7,0.9-2.6c0,0-1.7-5.2-0.9-6s19.8-65.5,13.8-73.2
		S341.6,509.7,341.6,509.7z"/>
	<circle class="st6" cx="380.2" cy="349.7" r="22.4"/>
	<path class="st1" d="M364.3,365.9c1.2-0.8,1.2-2.5,0.8-4s-1.1-2.8-1-4.3c0.2-4,5.7-5.6,6-9.6c0.2-2.4-1.7-5.2-0.6-7.3
		c0.7-1.3,2.3-1.8,3.8-2c5.7-1,11.5-0.9,17.2,0.2l0.8-2.2l4.2,2.8c0.2-1.3,2.1-1.5,3.3-0.8s2.3,1.8,3.6,2c2.1,0.3,3.8-1.9,3.7-4.2
		s-1.5-4.2-2.9-5.9c-3.5-4.4-7.8-8.1-12.6-10.9l1.2-2.1l-2.5,1l-0.3-2.5l-2.4,1.4l0-2.3c-2.6,3-7.1,2.9-11.1,3.2
		c-6.6,0.3-13,2.7-18.3,6.8c-5.3,4.3-8.5,10.6-8.9,17.4c-0.2,5.3,1.6,11.7,5.5,15.6C357.3,361.7,362.5,359.6,364.3,365.9z"/>
	<path class="st6" d="M435.1,567.1c-4.3-4-4.5-10.8-0.5-15.1c0.4-0.5,0.9-0.9,1.4-1.3l-6-23.6l13.5-7.1l8,33.5
		c3.2,5,1.8,11.6-3.2,14.8C444.2,571,438.7,570.5,435.1,567.1z"/>
	<path class="st5" d="M399.1,536.5c-27.2,0-52.3-12.3-52.6-12.5l-0.3-0.1l-2.3-54.8c-0.7-1.9-13.7-40.2-15.9-52.3
		c-2.2-12.3,30.2-23.1,34.2-24.4l0.9-9.9l36.4-3.9l4.6,12.7l13,4.9c3.1,1.1,4.8,4.4,4,7.6l-7.3,29.5l14.3,97.6l-0.4,0.2
		C418.7,534.7,408.9,536.6,399.1,536.5z"/>
	<path class="st5" d="M431.6,542.6l-12.6-52l-13.7-62.7l6.9-31.2h5.9c0.1,0,10.9,0.2,13.2,14.1c2.2,13.5,9,56.5,9.1,56.9l11.5,73.4
		L431.6,542.6z"/>
	<path class="st6" d="M377.6,533.8c-0.3-5.9-5.3-10.4-11.2-10.2c-0.6,0-1.3,0.1-1.9,0.3L350.5,504l-14.2,5.6l20.3,27.8
		c1.7,5.7,7.7,8.9,13.3,7.2C374.7,543.3,377.9,538.8,377.6,533.8L377.6,533.8z"/>
	<path class="st5" d="M350.1,532.3L307.4,477l16-50.3c1.2-12.6,9.1-16.2,9.4-16.3l0.5-0.2l13.9,37.1l-10.2,27.3l25.1,42.2
		L350.1,532.3z"/>
</g>
</svg>
