<svg xmlns="http://www.w3.org/2000/svg" viewBox="0 0 578.01 578"><defs><style>.cls-1{fill:#f2f2f2;}.cls-2{fill:#ccc;}.cls-3{fill:#3f3d56;}.cls-4{fill:#2f2e41;}.cls-5{fill:#3aa40c;}.cls-6{fill:#e6e6e6;}.cls-7{fill:#a0616a;}.cls-8{opacity:0.2;isolation:isolate;}</style></defs><g id="Camada_2" data-name="Camada 2"><g id="Camada_1-2" data-name="Camada 1"><path class="cls-1" d="M578,289a287.86,287.86,0,0,1-68.09,186.34c-1.6,1.9-3.23,3.77-4.89,5.63a290.63,290.63,0,0,1-67.49,56q-8.67,5.2-17.72,9.81l-1.84.92-2.21,1.09A286.48,286.48,0,0,1,368.25,567c-1.7.48-3.41,1-5.11,1.4a288.36,288.36,0,0,1-65.84,9.49l-3.4.07-1.15,0L289,578a288.92,288.92,0,0,1-69.54-8.43q-3.42-.84-6.81-1.77a285.17,285.17,0,0,1-35-12q-9-3.75-17.68-8.09c-1.31-.66-2.62-1.32-3.91-2-.55-.27-1.09-.56-1.63-.84a290.4,290.4,0,0,1-81.65-64.06c-1.6-1.79-3.17-3.61-4.72-5.44C-34.82,353.32-19.33,171,102.69,68.06q7.31-6.15,15-11.82c1.64-1.21,3.29-2.41,5-3.58l1-.69a286.68,286.68,0,0,1,97.1-43.85c2-.49,4-.95,6-1.38a291.87,291.87,0,0,1,114.68-2c2,.37,4,.75,6,1.16a287.27,287.27,0,0,1,97.1,39.43c.66.42,1.32.84,2,1.28,1.33.86,2.66,1.74,4,2.63A288.7,288.7,0,0,1,578,289Z"/><path class="cls-2" d="M216,438.51l-92.37,8.2-1,.09V52.66l1-.69a287.86,287.86,0,0,1,62-32.94l4.72,65.1.43,6,4.67,64.56,1.44,19.86,18.93,261.7Z"/><path class="cls-2" d="M444.44,45.32c.66.42,1.32.84,2,1.28V446.8l-2-.18-91.37-8.11.17-2.3,18.93-261.7,1.44-19.86,4.67-64.56.43-6,5-68.27A288.16,288.16,0,0,1,444.44,45.32Z"/><path class="cls-2" d="M444.44,45.32V452.26c0,7.81-5.38,14.16-12,14.16H135.64c-5.48,0-10.13-4.36-11.54-10.31a15.6,15.6,0,0,1-.46-3.85V52l-1,.69c-1.67,1.17-3.32,2.37-5,3.58v396a22.88,22.88,0,0,0,6.18,16,17,17,0,0,0,7.78,4.66,15.34,15.34,0,0,0,4,.53h296.8a15.47,15.47,0,0,0,4-.53c8-2.15,13.95-10.59,13.95-20.66v-403c-1.31-.89-2.64-1.77-4-2.63C445.76,46.16,445.1,45.74,444.44,45.32Z"/><rect class="cls-2" x="120.66" y="84.13" width="326.75" height="5.96"/><path class="cls-2" d="M220.74,8.12c2-.49,4-.95,6-1.38V168.55h-6Z"/><path class="cls-2" d="M341.38,4.73c2,.37,4,.75,6,1.16V168.55h-6Z"/><path class="cls-2" d="M484.66,436.21H93.35a26.82,26.82,0,1,0,0,53.64H484.66a26.79,26.79,0,0,0,20.12-9.11,27.78,27.78,0,0,0,3-4.18,26.1,26.1,0,0,0,1.75-3.56,26.81,26.81,0,0,0-24.89-36.79Z"/><rect class="cls-2" x="122.65" y="154.65" width="324.77" height="19.86"/><path class="cls-2" d="M282.05,148.69h6a10.93,10.93,0,0,1,10.93,10.92H271.13A10.92,10.92,0,0,1,282.05,148.69Z"/><path class="cls-3" d="M509.92,475.34a290.09,290.09,0,0,1-28.12,29H96.22a287.89,287.89,0,0,1-28.12-29Z"/><path class="cls-4" d="M321.29,375.07H256.37a3.26,3.26,0,0,0-1,.16,3.44,3.44,0,0,0-2.43,3.3V481.09h71.85V378.53a3.48,3.48,0,0,0-3.47-3.46Zm-24.57,50.6a7.58,7.58,0,0,1-1.56,4.6,7.67,7.67,0,0,1-13.78-4.6v-11.9a7.67,7.67,0,0,1,15.34,0Z"/><path class="cls-3" d="M252.69,477.81v9.89a1.94,1.94,0,0,0,1.93,1.94h68.43A2,2,0,0,0,325,487.7v-9.89Z"/><path class="cls-3" d="M428.79,215H151.29a9,9,0,0,0-9,9V411.27a9,9,0,0,0,9,9h277.5a9,9,0,0,0,9-9V224A9,9,0,0,0,428.79,215Z"/><path class="cls-5" d="M426.47,221.52H153.6a4.82,4.82,0,0,0-4.81,4.82V409a4.81,4.81,0,0,0,4.81,4.81H426.47a4.82,4.82,0,0,0,4.81-4.81V226.34A4.83,4.83,0,0,0,426.47,221.52Z"/><path class="cls-4" d="M376.25,489.48l-2.52-12a3,3,0,0,0-1.86-2.17,3,3,0,0,0-1.06-.2H213.5a2.89,2.89,0,0,0-1.06.2,3,3,0,0,0-1.86,2.17l-2.52,12a3,3,0,0,0,2.31,3.54,3.08,3.08,0,0,0,.61.06H373.32a3,3,0,0,0,2.32-1.11A3,3,0,0,0,376.25,489.48Z"/><rect class="cls-3" x="214.65" y="477.3" width="5" height="3" rx="0.49"/><rect class="cls-3" x="224.65" y="477.3" width="5" height="3" rx="0.49"/><rect class="cls-3" x="234.65" y="477.3" width="5" height="3" rx="0.49"/><rect class="cls-3" x="244.65" y="477.3" width="5" height="3" rx="0.49"/><rect class="cls-3" x="254.65" y="477.3" width="5" height="3" rx="0.49"/><rect class="cls-3" x="264.65" y="477.3" width="5" height="3" rx="0.49"/><rect class="cls-3" x="274.65" y="477.3" width="5" height="3" rx="0.49"/><rect class="cls-3" x="284.65" y="477.3" width="5" height="3" rx="0.49"/><rect class="cls-3" x="294.65" y="477.3" width="5" height="3" rx="0.49"/><rect class="cls-3" x="304.65" y="477.3" width="5" height="3" rx="0.49"/><rect class="cls-3" x="314.65" y="477.3" width="5" height="3" rx="0.49"/><rect class="cls-3" x="324.65" y="477.3" width="5" height="3" rx="0.49"/><rect class="cls-3" x="334.65" y="477.3" width="5" height="3" rx="0.49"/><rect class="cls-3" x="344.65" y="477.3" width="5" height="3" rx="0.49"/><rect class="cls-3" x="354.65" y="477.3" width="5" height="3" rx="0.49"/><rect class="cls-3" x="364.65" y="477.3" width="5" height="3" rx="0.49"/><rect class="cls-3" x="214.53" y="482.3" width="5" height="3" rx="0.49"/><rect class="cls-3" x="224.53" y="482.3" width="5" height="3" rx="0.49"/><rect class="cls-3" x="234.53" y="482.3" width="5" height="3" rx="0.49"/><rect class="cls-3" x="244.53" y="482.3" width="5" height="3" rx="0.49"/><rect class="cls-3" x="254.53" y="482.3" width="5" height="3" rx="0.49"/><rect class="cls-3" x="264.53" y="482.3" width="5" height="3" rx="0.49"/><rect class="cls-3" x="274.53" y="482.3" width="5" height="3" rx="0.49"/><rect class="cls-3" x="284.53" y="482.3" width="5" height="3" rx="0.49"/><rect class="cls-3" x="294.53" y="482.3" width="5" height="3" rx="0.49"/><rect class="cls-3" x="304.53" y="482.3" width="5" height="3" rx="0.49"/><rect class="cls-3" x="314.53" y="482.3" width="5" height="3" rx="0.49"/><rect class="cls-3" x="324.53" y="482.3" width="5" height="3" rx="0.49"/><rect class="cls-3" x="334.53" y="482.3" width="5" height="3" rx="0.49"/><rect class="cls-3" x="344.53" y="482.3" width="5" height="3" rx="0.49"/><rect class="cls-3" x="354.53" y="482.3" width="5" height="3" rx="0.49"/><rect class="cls-3" x="364.53" y="482.3" width="5" height="3" rx="0.49"/><rect class="cls-3" x="262.53" y="488.3" width="40" height="3" rx="0.49"/><path class="cls-3" d="M412.75,246.68H157.43a1,1,0,0,1-1-1,1,1,0,0,1,1-1H412.75a1,1,0,0,1,1,1A1,1,0,0,1,412.75,246.68Z"/><ellipse class="cls-3" cx="174.81" cy="233.38" rx="5.95" ry="6.08"/><ellipse class="cls-3" cx="195.37" cy="233.38" rx="5.95" ry="6.08"/><ellipse class="cls-3" cx="215.92" cy="233.38" rx="5.95" ry="6.08"/><path class="cls-3" d="M400.38,228.8h-14.6a1.11,1.11,0,0,0,0,2.21h14.6a1.11,1.11,0,0,0,0-2.21Z"/><path class="cls-3" d="M400.38,233h-14.6a1.11,1.11,0,0,0,0,2.21h14.6a1.11,1.11,0,0,0,0-2.21Z"/><path class="cls-3" d="M400.38,237.1h-14.6a1.11,1.11,0,0,0,0,2.21h14.6a1.11,1.11,0,0,0,0-2.21Z"/><path class="cls-6" d="M174.2,270.27h5.25a2.88,2.88,0,0,1,2.88,2.88h0a2.88,2.88,0,0,1-2.88,2.88H174.2a2.88,2.88,0,0,1-2.88-2.88h0A2.88,2.88,0,0,1,174.2,270.27Z"/><path class="cls-6" d="M234.2,270.27h5.25a2.88,2.88,0,0,1,2.88,2.88h0a2.88,2.88,0,0,1-2.88,2.88H234.2a2.88,2.88,0,0,1-2.88-2.88h0A2.88,2.88,0,0,1,234.2,270.27Z"/><path class="cls-6" d="M251.2,270.27h5.25a2.88,2.88,0,0,1,2.88,2.88h0a2.88,2.88,0,0,1-2.88,2.88H251.2a2.88,2.88,0,0,1-2.88-2.88h0A2.88,2.88,0,0,1,251.2,270.27Z"/><path class="cls-6" d="M190.52,269.79h32.61a2.88,2.88,0,0,1,2.88,2.88h0a2.88,2.88,0,0,1-2.88,2.88H190.52a2.88,2.88,0,0,1-2.88-2.88h0A2.88,2.88,0,0,1,190.52,269.79Z"/><path class="cls-6" d="M270.52,269.79h32.61a2.88,2.88,0,0,1,2.88,2.88h0a2.88,2.88,0,0,1-2.88,2.88H270.52a2.88,2.88,0,0,1-2.88-2.88h0A2.88,2.88,0,0,1,270.52,269.79Z"/><path class="cls-6" d="M190.2,283.27h5.25a2.88,2.88,0,0,1,2.88,2.88h0a2.88,2.88,0,0,1-2.88,2.88H190.2a2.88,2.88,0,0,1-2.88-2.88h0A2.88,2.88,0,0,1,190.2,283.27Z"/><path class="cls-6" d="M250.2,283.27h5.25a2.88,2.88,0,0,1,2.88,2.88h0a2.88,2.88,0,0,1-2.88,2.88H250.2a2.88,2.88,0,0,1-2.88-2.88h0A2.88,2.88,0,0,1,250.2,283.27Z"/><path class="cls-6" d="M267.2,283.27h5.25a2.88,2.88,0,0,1,2.88,2.88h0a2.88,2.88,0,0,1-2.88,2.88H267.2a2.88,2.88,0,0,1-2.88-2.88h0A2.88,2.88,0,0,1,267.2,283.27Z"/><path class="cls-6" d="M206.52,282.79h32.61a2.88,2.88,0,0,1,2.88,2.88h0a2.88,2.88,0,0,1-2.88,2.88H206.52a2.88,2.88,0,0,1-2.88-2.88h0A2.88,2.88,0,0,1,206.52,282.79Z"/><path class="cls-6" d="M286.52,282.79h32.61a2.88,2.88,0,0,1,2.88,2.88h0a2.88,2.88,0,0,1-2.88,2.88H286.52a2.88,2.88,0,0,1-2.88-2.88h0A2.88,2.88,0,0,1,286.52,282.79Z"/><path class="cls-6" d="M206.2,296.27h5.25a2.88,2.88,0,0,1,2.88,2.88h0a2.88,2.88,0,0,1-2.88,2.88H206.2a2.88,2.88,0,0,1-2.88-2.88h0A2.88,2.88,0,0,1,206.2,296.27Z"/><path class="cls-6" d="M266.2,296.27h5.25a2.88,2.88,0,0,1,2.88,2.88h0a2.88,2.88,0,0,1-2.88,2.88H266.2a2.88,2.88,0,0,1-2.88-2.88h0A2.88,2.88,0,0,1,266.2,296.27Z"/><path class="cls-6" d="M283.2,296.27h5.25a2.88,2.88,0,0,1,2.88,2.88h0a2.88,2.88,0,0,1-2.88,2.88H283.2a2.88,2.88,0,0,1-2.88-2.88h0A2.88,2.88,0,0,1,283.2,296.27Z"/><path class="cls-6" d="M222.52,295.79h32.61a2.88,2.88,0,0,1,2.88,2.88h0a2.88,2.88,0,0,1-2.88,2.88H222.52a2.88,2.88,0,0,1-2.88-2.88h0A2.88,2.88,0,0,1,222.52,295.79Z"/><path class="cls-6" d="M302.52,295.79h32.61a2.88,2.88,0,0,1,2.88,2.88h0a2.88,2.88,0,0,1-2.88,2.88H302.52a2.88,2.88,0,0,1-2.88-2.88h0A2.88,2.88,0,0,1,302.52,295.79Z"/><path class="cls-6" d="M222.2,309.27h5.25a2.88,2.88,0,0,1,2.88,2.88h0a2.88,2.88,0,0,1-2.88,2.88H222.2a2.88,2.88,0,0,1-2.88-2.88h0A2.88,2.88,0,0,1,222.2,309.27Z"/><path class="cls-6" d="M282.2,309.27h5.25a2.88,2.88,0,0,1,2.88,2.88h0a2.88,2.88,0,0,1-2.88,2.88H282.2a2.88,2.88,0,0,1-2.88-2.88h0A2.88,2.88,0,0,1,282.2,309.27Z"/><path class="cls-6" d="M299.2,309.27h5.25a2.88,2.88,0,0,1,2.88,2.88h0a2.88,2.88,0,0,1-2.88,2.88H299.2a2.88,2.88,0,0,1-2.88-2.88h0A2.88,2.88,0,0,1,299.2,309.27Z"/><path class="cls-6" d="M238.52,308.79h32.61a2.88,2.88,0,0,1,2.88,2.88h0a2.88,2.88,0,0,1-2.88,2.88H238.52a2.88,2.88,0,0,1-2.88-2.88h0A2.88,2.88,0,0,1,238.52,308.79Z"/><path class="cls-6" d="M234.2,361h5.25a2.88,2.88,0,0,1,2.88,2.88h0a2.88,2.88,0,0,1-2.88,2.88H234.2a2.88,2.88,0,0,1-2.88-2.88h0A2.88,2.88,0,0,1,234.2,361Z"/><path class="cls-6" d="M251.2,361h5.25a2.88,2.88,0,0,1,2.88,2.88h0a2.88,2.88,0,0,1-2.88,2.88H251.2a2.88,2.88,0,0,1-2.88-2.88h0A2.88,2.88,0,0,1,251.2,361Z"/><path class="cls-6" d="M270.52,361.45h32.61a2.88,2.88,0,0,1,2.88,2.88h0a2.88,2.88,0,0,1-2.88,2.88H270.52a2.88,2.88,0,0,1-2.88-2.88h0A2.88,2.88,0,0,1,270.52,361.45Z"/><path class="cls-6" d="M174.2,361h5.25a2.88,2.88,0,0,1,2.88,2.88h0a2.88,2.88,0,0,1-2.88,2.88H174.2a2.88,2.88,0,0,1-2.88-2.88h0A2.88,2.88,0,0,1,174.2,361Z"/><path class="cls-6" d="M190.52,361.45h32.61a2.88,2.88,0,0,1,2.88,2.88h0a2.88,2.88,0,0,1-2.88,2.88H190.52a2.88,2.88,0,0,1-2.88-2.88h0A2.88,2.88,0,0,1,190.52,361.45Z"/><path class="cls-6" d="M190.2,348h5.25a2.88,2.88,0,0,1,2.88,2.88h0a2.88,2.88,0,0,1-2.88,2.88H190.2a2.88,2.88,0,0,1-2.88-2.88h0A2.88,2.88,0,0,1,190.2,348Z"/><path class="cls-6" d="M250.2,348h5.25a2.88,2.88,0,0,1,2.88,2.88h0a2.88,2.88,0,0,1-2.88,2.88H250.2a2.88,2.88,0,0,1-2.88-2.88h0A2.88,2.88,0,0,1,250.2,348Z"/><path class="cls-6" d="M267.2,348h5.25a2.88,2.88,0,0,1,2.88,2.88h0a2.88,2.88,0,0,1-2.88,2.88H267.2a2.88,2.88,0,0,1-2.88-2.88h0A2.88,2.88,0,0,1,267.2,348Z"/><path class="cls-6" d="M206.52,348.45h32.61a2.88,2.88,0,0,1,2.88,2.88h0a2.88,2.88,0,0,1-2.88,2.88H206.52a2.88,2.88,0,0,1-2.88-2.88h0A2.88,2.88,0,0,1,206.52,348.45Z"/><path class="cls-6" d="M206.2,335h5.25a2.88,2.88,0,0,1,2.88,2.88h0a2.88,2.88,0,0,1-2.88,2.88H206.2a2.88,2.88,0,0,1-2.88-2.88h0A2.88,2.88,0,0,1,206.2,335Z"/><path class="cls-6" d="M266.2,335h5.25a2.88,2.88,0,0,1,2.88,2.88h0a2.88,2.88,0,0,1-2.88,2.88H266.2a2.88,2.88,0,0,1-2.88-2.88h0A2.88,2.88,0,0,1,266.2,335Z"/><path class="cls-6" d="M283.2,335h5.25a2.88,2.88,0,0,1,2.88,2.88h0a2.88,2.88,0,0,1-2.88,2.88H283.2a2.88,2.88,0,0,1-2.88-2.88h0A2.88,2.88,0,0,1,283.2,335Z"/><path class="cls-6" d="M222.52,335.45h32.61a2.88,2.88,0,0,1,2.88,2.88h0a2.88,2.88,0,0,1-2.88,2.88H222.52a2.88,2.88,0,0,1-2.88-2.88h0A2.88,2.88,0,0,1,222.52,335.45Z"/><path class="cls-6" d="M222.2,322h5.25a2.88,2.88,0,0,1,2.88,2.88h0a2.88,2.88,0,0,1-2.88,2.88H222.2a2.88,2.88,0,0,1-2.88-2.88h0A2.88,2.88,0,0,1,222.2,322Z"/><path class="cls-6" d="M282.2,322h5.25a2.88,2.88,0,0,1,2.88,2.88h0a2.88,2.88,0,0,1-2.88,2.88H282.2a2.88,2.88,0,0,1-2.88-2.88h0A2.88,2.88,0,0,1,282.2,322Z"/><path class="cls-6" d="M299.2,322h5.25a2.88,2.88,0,0,1,2.88,2.88h0a2.88,2.88,0,0,1-2.88,2.88H299.2a2.88,2.88,0,0,1-2.88-2.88h0A2.88,2.88,0,0,1,299.2,322Z"/><path class="cls-6" d="M238.52,322.45h32.61a2.88,2.88,0,0,1,2.88,2.88h0a2.88,2.88,0,0,1-2.88,2.88H238.52a2.88,2.88,0,0,1-2.88-2.88h0A2.88,2.88,0,0,1,238.52,322.45Z"/><path class="cls-3" d="M415.82,548.77l-1.84.92c-15.8,7.9-28.44,12.39-45.73,17.31-1.46-16.3-2.87-45-4.24-62.71-.36-4.61-.72-8.48-1.07-11.21a15.47,15.47,0,0,0-.88-4.25l.06,4.25.15,11.21.87,64.11a288.36,288.36,0,0,1-65.84,9.49l-3.4.07-1.15,0L289,578a288.92,288.92,0,0,1-69.54-8.43c.49-16.13,1-44.46,1.45-65.28.1-4.07.19-7.86.29-11.21.19-7.16.39-12.32.58-14.05a4.28,4.28,0,0,0-.39,1,96.07,96.07,0,0,0-1.89,13.08c-.35,3.35-.7,7.14-1,11.21-1.86,21.63-3.8,51-5.8,63.51a285.17,285.17,0,0,1-35-12q-9-3.75-17.68-8.09c1.1-7.2,2.25-15.27,3.43-23.64.92-6.49,1.87-13.16,2.84-19.75,1.5-10.18,3-20.16,4.6-29,2.28-12.84,4.62-23.16,6.94-27.9,2.2-4.5,4.4-8.94,6.53-13.19.74-1.49,1.48-3,2.2-4.39l.51-1c1.53-3,3-5.89,4.42-8.59,1.21-2.31,2.36-4.49,3.45-6.5,2.64-4.88,4.88-8.77,6.54-11.23a55.26,55.26,0,0,1,29.28-22.21l.3-.08.21.09,20.45-6.28,3-.92,2-.62,7.08-5.39,3.85-2.93,3.61-2.75,7.06-5.37L322,358.77l8.51,20.49,19.06,7,.33-.15.29-.12.3.08a55.38,55.38,0,0,1,29.28,22.21c.94,1.41,2.08,3.27,3.37,5.52,1.1,1.91,2.3,4.09,3.6,6.5,1.85,3.43,3.87,7.3,6,11.49l1.43,2.81q1.33,2.64,2.71,5.39c2.13,4.25,4.33,8.69,6.53,13.2,1.91,3.91,3.84,11.95,5.74,22.18,1.57,8.5,3.13,18.52,4.64,29,2,13.52-.13,29.71,1.66,42.15C415.59,547.23,415.71,548,415.82,548.77Z"/><circle class="cls-7" cx="289.62" cy="288.89" r="50.84"/><path class="cls-4" d="M373.46,221.52a27,27,0,0,0-4-6.5c-7.72-9.43-21.76-13.58-36.17-2.42a15.3,15.3,0,0,0-8.35.48,12.74,12.74,0,0,0-3.52,1.94,15.83,15.83,0,0,0-4.94,6.5,15.17,15.17,0,0,0-1.1,4.23,50.94,50.94,0,0,0-11.23-4.23,60.32,60.32,0,0,0-29.13,0,36.79,36.79,0,0,0-8.78,3.48c-4.68,2.7-7.37,6.11-7.85,9.9-6.75.38-13.77,3.93-19,9.75-.59.65-1.16,1.33-1.69,2A32.64,32.64,0,0,0,231,266.73V268h1.27a27,27,0,0,1,10.15,2,28,28,0,0,1,5.89,3.25,29.1,29.1,0,0,1,3.37,2.8,33.61,33.61,0,0,1,6.12,8.05,37.52,37.52,0,0,1,4.08,24.71,36.72,36.72,0,0,1-1.52,5.76,37.9,37.9,0,0,1-3.71,7.63l-.17.27c-.67,1.07-1.31,2.16-1.91,3.26-.45.82-.87,1.66-1.26,2.5a51.24,51.24,0,0,0-2.88,7.24A52.87,52.87,0,0,0,248,349c-.07,1.22-.09,2.44-.05,3.66a51.68,51.68,0,0,0,1,9.36l.27,1.25.73,3.19,1.73,7.61,1.2,5.24,1.11,4.86,1.64-2.35c.56-.8,2-3.26,3.86-6.74,1.25-2.27,2.7-5,4.27-7.94,2.19-4.15,4.59-8.78,6.94-13.4.95-1.87,1.89-3.73,2.8-5.55,1.72-3.45,3.34-6.78,4.73-9.74,1.28-2.73,2.37-5.15,3.18-7.09.25,1.27.46,2.56.62,3.86s.31,2.66.38,4c0,.2,0,.41,0,.61l0,.82v.24l1.06.14a93.49,93.49,0,0,0,18.4.14h0a74.86,74.86,0,0,0,23.56-5.71,49.52,49.52,0,0,0,11.8-7.24,41.43,41.43,0,0,0,4.66-4.52c.36-.41.71-.82,1.05-1.24a41.09,41.09,0,0,0,5.05-7.9,42.36,42.36,0,0,0,2.34-5.76c3.84-11.63,3.62-26.14-.66-43.38a10,10,0,0,0,3.27-1.26c3.14-1.89,5.32-5.64,6-10.22l1.08.29a30,30,0,0,0,10-7.54,25.18,25.18,0,0,0,1.54-2C376.59,237.45,376.63,228.81,373.46,221.52Z"/><polygon class="cls-8" points="206.33 475.3 214.82 442.5 222.33 470.8 206.33 475.3"/><path class="cls-4" d="M432.44,453.93c-3,41.88.11,60.32-16.67,94.85A286.48,286.48,0,0,1,368.25,567c-1.7.48-3.41,1-5.11,1.4a288.36,288.36,0,0,1-65.84,9.49l-3.4.07-1.15,0L289,578a288.92,288.92,0,0,1-69.54-8.43q-3.42-.84-6.81-1.77a285.17,285.17,0,0,1-35-12q-9-3.75-17.68-8.09c-1.31-.66-2.62-1.32-3.91-2-6.63-11.66-10.4-25.84-10.48-42.88C150.21,473.44,422.3,428.61,432.44,453.93Z"/><path class="cls-8" d="M432.43,461.1c.15-2.59.33-5.27.53-8.06-10.14-25.32-282.23,19.51-286.82,48.87,0,2.69.13,5.31.32,7.86C157.58,480.79,416.07,438.18,432.43,461.1Z"/><path class="cls-4" d="M163.1,342.15a6.33,6.33,0,0,0-6.75-6.81,5.69,5.69,0,0,0-1,.12l-39.76,9a6.62,6.62,0,0,0-4.21,3.24,8.3,8.3,0,0,0-1.72.25,9.66,9.66,0,1,0,4.27,18.85,9.8,9.8,0,0,0,3.89-1.89l13.48,37.94a6.33,6.33,0,0,0,6.94,3.05L164.08,400a6.44,6.44,0,0,0,4.93-5.72Zm-49.78,21.92a6.91,6.91,0,0,1-3.08-13.47c.13,0,.25,0,.38,0a6.49,6.49,0,0,0,.85,3.27l4.93,8.6A6.4,6.4,0,0,1,113.32,364.07Z"/><path class="cls-3" d="M156.35,335.34c.38,5-8.23,10.8-19.76,13.09-10.58,2.17-20.07.66-22.74-3.29a6,6,0,0,1,1.73-.7l39.76-9A5.69,5.69,0,0,1,156.35,335.34Z"/><path class="cls-7" d="M128.85,462.91l22.33-11.17-18.61-50.25-4.9-25.34a19.16,19.16,0,0,0-31.29-10.91h0a19.17,19.17,0,0,0-2.49,26.52l18.21,22.76Z"/><path class="cls-3" d="M151.18,442.43l-29.77,14.89L144,528.13a31,31,0,0,0,22.34,20.72h0a31,31,0,0,0,33.74-14.2L260,431.94a31.63,31.63,0,0,0-10.19-43h0a31.64,31.64,0,0,0-43.64,9.8,33.13,33.13,0,0,0-1.66,3l-36.58,77.94Z"/><path class="cls-5" d="M142,378.44a.45.45,0,0,1-.16,0l-6.5-2.23a.51.51,0,0,1-.31-.64.59.59,0,0,1,.1-.17l4.84-5.27a.5.5,0,0,1,.74.67h0l-4.32,4.7,5.78,2a.5.5,0,0,1-.17,1Z"/><path class="cls-5" d="M150.88,376.62a.51.51,0,0,1-.5-.5.48.48,0,0,1,.16-.36l4.39-4.25-5.9-2.43a.5.5,0,1,1,.38-.93h0l6.61,2.73a.49.49,0,0,1,.27.65.62.62,0,0,1-.11.17l-5,4.78A.5.5,0,0,1,150.88,376.62Z"/><path class="cls-5" d="M143.34,381.5l-.15,0a.51.51,0,0,1-.33-.63h0l4.61-15a.5.5,0,1,1,1,.3l-4.61,15A.5.5,0,0,1,143.34,381.5Z"/></g></g></svg>